<?xml version="1.0" standalone="no"?>
<!DOCTYPE svg PUBLIC "-//W3C//DTD SVG 20010904//EN"
 "http://www.w3.org/TR/2001/REC-SVG-20010904/DTD/svg10.dtd">
<svg version="1.0" xmlns="http://www.w3.org/2000/svg"
 width="300.000000pt" height="293.000000pt" viewBox="0 0 300.000000 293.000000"
 preserveAspectRatio="xMidYMid meet">
<metadata>
Created by potrace 1.15, written by Peter Selinger 2001-2017
</metadata>
<g transform="translate(0.000000,293.000000) scale(0.100000,-0.100000)"
fill="#000000" stroke="none">
<path d="M1235 2914 c-257 -45 -538 -182 -731 -355 -203 -183 -362 -424 -437
-664 -56 -180 -62 -224 -62 -470 1 -201 3 -241 22 -321 93 -382 294 -683 608
-909 116 -83 332 -187 401 -193 96 -8 108 19 98 214 l-7 141 -122 -5 c-99 -4
-132 -1 -176 13 -112 37 -155 78 -218 209 -40 83 -68 117 -176 210 l-40 35 28
10 c37 14 112 3 97 -14 -6 -8 -6 -15 2 -23 16 -16 45 -15 51 1 3 9 10 7 23 -6
11 -10 13 -17 6 -17 -7 0 -12 -9 -12 -20 0 -24 30 -41 52 -29 10 6 20 4 27 -5
9 -11 7 -15 -9 -19 -27 -7 -26 -43 2 -58 17 -9 24 -9 33 4 10 14 14 13 33 -12
21 -28 21 -29 2 -34 -26 -7 -25 -29 1 -53 16 -14 24 -16 37 -7 9 6 16 18 14
27 -3 16 -1 16 24 0 15 -10 22 -20 15 -22 -18 -6 -13 -30 8 -42 29 -15 52 -12
58 8 3 14 12 17 32 14 22 -3 28 -8 24 -23 -6 -23 17 -34 53 -25 19 5 25 12 21
26 -4 16 5 22 56 37 l61 18 16 55 c20 65 43 111 64 129 25 21 19 37 -16 39
-59 5 -181 33 -247 58 -220 83 -345 243 -386 495 -35 218 -6 375 98 523 43 61
43 61 29 101 -17 50 -11 242 10 300 14 37 18 40 57 43 65 5 212 -52 322 -125
l38 -25 87 17 c192 38 382 39 565 4 l106 -20 89 50 c113 65 184 92 259 98 l61
5 18 -70 c14 -56 17 -93 13 -174 -3 -57 -8 -114 -12 -128 -5 -19 1 -35 25 -65
128 -161 155 -424 69 -682 -72 -217 -290 -371 -566 -399 -35 -4 -63 -11 -63
-16 0 -6 11 -23 24 -39 14 -16 35 -55 47 -86 21 -54 23 -76 27 -336 4 -269 4
-278 25 -292 35 -25 92 -18 192 24 430 180 754 557 877 1021 27 104 30 134 35
317 6 239 -7 343 -68 526 -127 383 -396 693 -763 879 -107 54 -291 114 -406
133 -120 19 -413 19 -525 -1z"/>
</g>
</svg>
